<svg xmlns="http://www.w3.org/2000/svg" width="177.612" height="32" viewBox="0 0 177.612 32"><defs><style>.a{fill:#fd5b05;}.b{fill:#040742;}</style></defs><g transform="translate(-8 -8)"><g transform="translate(8 8)"><path class="a" d="M542.025,500.2c2.791.764,3.982-3.566,1.194-4.33-7.845-2.149-13.769,2.408-17.743,8.557-3.973-6.148-9.895-10.707-17.743-8.557-2.783.763-1.6,5.1,1.194,4.33,6.7-1.837,11.12,3.372,14.023,8.767-2.907,5.4-7.32,10.6-14.023,8.767-2.791-.764-3.982,3.566-1.194,4.33,7.845,2.149,13.769-2.408,17.743-8.557,3.973,6.148,9.895,10.707,17.743,8.557,2.783-.763,1.6-5.1-1.194-4.33-6.7,1.837-11.12-3.372-14.023-8.767C530.91,503.563,535.322,498.364,542.025,500.2Z" transform="translate(-427.674 -492.967)"/><path class="b" d="M673.447,490.049h-3.129a1.043,1.043,0,0,0-1.043,1.043v16.062a9.983,9.983,0,0,1-2.122,6.719,7.91,7.91,0,0,1-11.492,0,9.985,9.985,0,0,1-2.121-6.719V491.092a1.043,1.043,0,0,0-1.043-1.043h-3.13a1.043,1.043,0,0,0-1.043,1.043v16.283q0,6.674,3.668,10.276a14.1,14.1,0,0,0,18.829,0q3.668-3.6,3.669-10.276V491.092A1.043,1.043,0,0,0,673.447,490.049Z" transform="translate(-526.448 -489.299)"/><path class="b" d="M775.022,504.386a17.1,17.1,0,0,0-7.16-3.227,22.036,22.036,0,0,1-6.211-2.143,3.265,3.265,0,0,1-1.458-2.873,3.1,3.1,0,0,1,1.458-2.807,6.852,6.852,0,0,1,3.735-.928,14.3,14.3,0,0,1,4.619.8,11.9,11.9,0,0,1,2.9,1.4,1.039,1.039,0,0,0,1.443-.25l1.576-2.226a1.054,1.054,0,0,0-.264-1.47,15.882,15.882,0,0,0-4.194-2.091,18.5,18.5,0,0,0-5.879-.972,12.552,12.552,0,0,0-7.713,2.32,7.746,7.746,0,0,0-3.116,6.607q0,4.289,2.74,6.365a11.668,11.668,0,0,0,3.138,1.79,43.087,43.087,0,0,0,5.172,1.5,14.65,14.65,0,0,1,4.8,1.812,3.227,3.227,0,0,1,1.393,2.785,3.39,3.39,0,0,1-1.481,2.873,6.638,6.638,0,0,1-4,1.083,14.258,14.258,0,0,1-8.924-3.4,1.05,1.05,0,0,0-1.464.134l-1.945,2.34a1.042,1.042,0,0,0,.128,1.469,18.646,18.646,0,0,0,12.071,4.322,12.157,12.157,0,0,0,8-2.519,8.111,8.111,0,0,0,3.05-6.564A7.644,7.644,0,0,0,775.022,504.386Z" transform="translate(-599.819 -487.59)"/><path class="b" d="M412.646,489.891a13.355,13.355,0,0,0-10.4,4.732,16.562,16.562,0,0,0-.042,21.71,13.946,13.946,0,0,0,20.882-.021,16.566,16.566,0,0,0-.021-21.689A13.378,13.378,0,0,0,412.646,489.891Zm6.791,22.814a8.478,8.478,0,0,1-6.834,3.311,8.357,8.357,0,0,1-6.749-3.311,11.587,11.587,0,0,1,0-14.495A8.357,8.357,0,0,1,412.6,494.9a8.5,8.5,0,0,1,6.812,3.268,10.891,10.891,0,0,1,2.589,7.236A11.087,11.087,0,0,1,419.438,512.7Z" transform="translate(-352.665 -489.19)"/><path class="b" d="M267.147,491.493H250.069a.963.963,0,0,0-.963.963v26.593a.963.963,0,0,0,.963.963h2.889a.963.963,0,0,0,.963-.963v-9.824a.963.963,0,0,1,.963-.963h10.722a.963.963,0,0,0,.963-.963v-2.522a.963.963,0,0,0-.963-.963H254.883a.963.963,0,0,1-.963-.963v-5.908a.963.963,0,0,1,.963-.963h12.241a.963.963,0,0,0,.963-.954l.023-2.563A.963.963,0,0,0,267.147,491.493Z" transform="translate(-249.106 -490.301)"/><path class="b" d="M346.693,515.442H335.6a.963.963,0,0,1-.963-.963V492.456a.963.963,0,0,0-.963-.963H330.79a.963.963,0,0,0-.963.963v26.593a.963.963,0,0,0,.963.963h15.9a.963.963,0,0,0,.963-.963v-2.644A.963.963,0,0,0,346.693,515.442Z" transform="translate(-305.183 -490.301)"/></g></g></svg>